<svg width="749" height="361" viewBox="0 0 749 361" fill="none" xmlns="http://www.w3.org/2000/svg">
<path d="M68.552 160.968C59.696 160.968 51.4413 159.547 43.788 156.704C36.244 153.752 29.684 149.597 24.108 144.24C18.532 138.883 14.1587 132.596 10.988 125.38C7.92667 118.164 6.396 110.237 6.396 101.6C6.396 92.9627 7.92667 85.036 10.988 77.82C14.1587 70.604 18.532 64.3173 24.108 58.96C29.7933 53.6027 36.408 49.5027 43.952 46.66C51.496 43.708 59.7507 42.232 68.716 42.232C78.6653 42.232 87.6307 43.9813 95.612 47.48C103.703 50.8693 110.481 55.8987 115.948 62.568L98.892 78.312C94.956 73.8293 90.5827 70.4947 85.772 68.308C80.9613 66.012 75.7133 64.864 70.028 64.864C64.6707 64.864 59.7507 65.7387 55.268 67.488C50.7853 69.2373 46.904 71.752 43.624 75.032C40.344 78.312 37.7747 82.1933 35.916 86.676C34.1667 91.1587 33.292 96.1333 33.292 101.6C33.292 107.067 34.1667 112.041 35.916 116.524C37.7747 121.007 40.344 124.888 43.624 128.168C46.904 131.448 50.7853 133.963 55.268 135.712C59.7507 137.461 64.6707 138.336 70.028 138.336C75.7133 138.336 80.9613 137.243 85.772 135.056C90.5827 132.76 94.956 129.316 98.892 124.724L115.948 140.468C110.481 147.137 103.703 152.221 95.612 155.72C87.6307 159.219 78.6107 160.968 68.552 160.968ZM220.047 160.968C210.972 160.968 202.554 159.492 194.791 156.54C187.138 153.588 180.468 149.433 174.783 144.076C169.207 138.719 164.834 132.432 161.663 125.216C158.602 118 157.071 110.128 157.071 101.6C157.071 93.072 158.602 85.2 161.663 77.984C164.834 70.768 169.262 64.4813 174.947 59.124C180.632 53.7667 187.302 49.612 194.955 46.66C202.608 43.708 210.918 42.232 219.883 42.232C228.958 42.232 237.267 43.708 244.811 46.66C252.464 49.612 259.079 53.7667 264.655 59.124C270.34 64.4813 274.768 70.768 277.939 77.984C281.11 85.0907 282.695 92.9627 282.695 101.6C282.695 110.128 281.11 118.055 277.939 125.38C274.768 132.596 270.34 138.883 264.655 144.24C259.079 149.488 252.464 153.588 244.811 156.54C237.267 159.492 229.012 160.968 220.047 160.968ZM219.883 138.336C225.022 138.336 229.723 137.461 233.987 135.712C238.36 133.963 242.187 131.448 245.467 128.168C248.747 124.888 251.262 121.007 253.011 116.524C254.87 112.041 255.799 107.067 255.799 101.6C255.799 96.1333 254.87 91.1587 253.011 86.676C251.262 82.1933 248.747 78.312 245.467 75.032C242.296 71.752 238.524 69.2373 234.151 67.488C229.778 65.7387 225.022 64.864 219.883 64.864C214.744 64.864 209.988 65.7387 205.615 67.488C201.351 69.2373 197.579 71.752 194.299 75.032C191.019 78.312 188.45 82.1933 186.591 86.676C184.842 91.1587 183.967 96.1333 183.967 101.6C183.967 106.957 184.842 111.932 186.591 116.524C188.45 121.007 190.964 124.888 194.135 128.168C197.415 131.448 201.242 133.963 205.615 135.712C209.988 137.461 214.744 138.336 219.883 138.336ZM386.466 160.968C370.175 160.968 357.438 156.431 348.254 147.356C339.07 138.281 334.478 125.325 334.478 108.488V44.2H361.046V107.504C361.046 118.437 363.287 126.309 367.77 131.12C372.253 135.931 378.539 138.336 386.63 138.336C394.721 138.336 401.007 135.931 405.49 131.12C409.973 126.309 412.214 118.437 412.214 107.504V44.2H438.454V108.488C438.454 125.325 433.862 138.281 424.678 147.356C415.494 156.431 402.757 160.968 386.466 160.968ZM497.508 159V44.2H547.2C557.477 44.2 566.333 45.8947 573.768 49.284C581.203 52.564 586.943 57.32 590.988 63.552C595.033 69.784 597.056 77.2187 597.056 85.856C597.056 94.384 595.033 101.764 590.988 107.996C586.943 114.228 581.203 119.039 573.768 122.428C566.333 125.708 557.477 127.348 547.2 127.348H512.268L524.076 115.376V159H497.508ZM524.076 118.328L512.268 105.7H545.724C553.924 105.7 560.047 103.951 564.092 100.452C568.137 96.9533 570.16 92.088 570.16 85.856C570.16 79.5147 568.137 74.5947 564.092 71.096C560.047 67.5973 553.924 65.848 545.724 65.848H512.268L524.076 53.22V118.328ZM677.36 159V112.096L683.428 128.168L632.916 44.2H661.124L699.828 108.652H683.592L722.46 44.2H748.536L698.024 128.168L703.928 112.096V159H677.36Z" fill="black"/>
<mask id="path-2-outside-1_917_3535" maskUnits="userSpaceOnUse" x="4" y="211" width="737" height="119" fill="black">
<rect fill="white" x="4" y="211" width="737" height="119"/>
<path d="M45.65 323L11.3 218H36.5L66.35 311H53.75L84.95 218H107.45L137.45 311H125.3L155.9 218H179.15L144.8 323H118.7L92.15 241.4H99.05L71.75 323H45.65ZM377.374 323V218H422.824C432.224 218 440.324 219.55 447.124 222.65C453.924 225.65 459.174 230 462.874 235.7C466.574 241.4 468.424 248.2 468.424 256.1C468.424 263.9 466.574 270.65 462.874 276.35C459.174 281.95 453.924 286.25 447.124 289.25C440.324 292.25 432.224 293.75 422.824 293.75H390.874L401.674 283.1V323H377.374ZM444.124 323L417.874 284.9H443.824L470.374 323H444.124ZM401.674 285.8L390.874 274.4H421.474C428.974 274.4 434.574 272.8 438.274 269.6C441.974 266.3 443.824 261.8 443.824 256.1C443.824 250.3 441.974 245.8 438.274 242.6C434.574 239.4 428.974 237.8 421.474 237.8H390.874L401.674 226.25V285.8ZM539.427 299L538.077 270.95L588.327 218H615.327L570.027 266.75L556.527 281.15L539.427 299ZM517.677 323V218H541.827V323H517.677ZM589.527 323L552.177 277.25L568.077 260L617.877 323H589.527ZM691.014 324.8C682.614 324.8 674.564 323.7 666.864 321.5C659.164 319.2 652.964 316.25 648.264 312.65L656.514 294.35C661.014 297.55 666.314 300.2 672.414 302.3C678.614 304.3 684.864 305.3 691.164 305.3C695.964 305.3 699.814 304.85 702.714 303.95C705.714 302.95 707.914 301.6 709.314 299.9C710.714 298.2 711.414 296.25 711.414 294.05C711.414 291.25 710.314 289.05 708.114 287.45C705.914 285.75 703.014 284.4 699.414 283.4C695.814 282.3 691.814 281.3 687.414 280.4C683.114 279.4 678.764 278.2 674.364 276.8C670.064 275.4 666.114 273.6 662.514 271.4C658.914 269.2 655.964 266.3 653.664 262.7C651.464 259.1 650.364 254.5 650.364 248.9C650.364 242.9 651.964 237.45 655.164 232.55C658.464 227.55 663.364 223.6 669.864 220.7C676.464 217.7 684.714 216.2 694.614 216.2C701.214 216.2 707.714 217 714.114 218.6C720.514 220.1 726.164 222.4 731.064 225.5L723.564 243.95C718.664 241.15 713.764 239.1 708.864 237.8C703.964 236.4 699.164 235.7 694.464 235.7C689.764 235.7 685.914 236.25 682.914 237.35C679.914 238.45 677.764 239.9 676.464 241.7C675.164 243.4 674.514 245.4 674.514 247.7C674.514 250.4 675.614 252.6 677.814 254.3C680.014 255.9 682.914 257.2 686.514 258.2C690.114 259.2 694.064 260.2 698.364 261.2C702.764 262.2 707.114 263.35 711.414 264.65C715.814 265.95 719.814 267.7 723.414 269.9C727.014 272.1 729.914 275 732.114 278.6C734.414 282.2 735.564 286.75 735.564 292.25C735.564 298.15 733.914 303.55 730.614 308.45C727.314 313.35 722.364 317.3 715.764 320.3C709.264 323.3 701.014 324.8 691.014 324.8Z"/>
</mask>
<path d="M45.65 323L40.8978 324.555L42.025 328H45.65V323ZM11.3 218V213H4.40353L6.54783 219.555L11.3 218ZM36.5 218L41.2608 216.472L40.1464 213H36.5V218ZM66.35 311V316H73.2061L71.1108 309.472L66.35 311ZM53.75 311L49.0097 309.41L46.7987 316H53.75V311ZM84.95 218V213H81.3535L80.2097 216.41L84.95 218ZM107.45 218L112.209 216.465L111.091 213H107.45V218ZM137.45 311V316H144.317L142.209 309.465L137.45 311ZM125.3 311L120.551 309.437L118.391 316H125.3V311ZM155.9 218V213H152.281L151.15 216.437L155.9 218ZM179.15 218L183.902 219.555L186.046 213H179.15V218ZM144.8 323V328H148.425L149.552 324.555L144.8 323ZM118.7 323L113.945 324.547L115.069 328H118.7V323ZM92.15 241.4V236.4H85.2652L87.3954 242.947L92.15 241.4ZM99.05 241.4L103.792 242.986L105.995 236.4H99.05V241.4ZM71.75 323V328H75.3496L76.4917 324.586L71.75 323ZM50.4022 321.445L16.0522 216.445L6.54783 219.555L40.8978 324.555L50.4022 321.445ZM11.3 223H36.5V213H11.3V223ZM31.7392 219.528L61.5892 312.528L71.1108 309.472L41.2608 216.472L31.7392 219.528ZM66.35 306H53.75V316H66.35V306ZM58.4904 312.59L89.6904 219.59L80.2097 216.41L49.0097 309.41L58.4904 312.59ZM84.95 223H107.45V213H84.95V223ZM102.691 219.535L132.691 312.535L142.209 309.465L112.209 216.465L102.691 219.535ZM137.45 306H125.3V316H137.45V306ZM130.05 312.563L160.65 219.563L151.15 216.437L120.551 309.437L130.05 312.563ZM155.9 223H179.15V213H155.9V223ZM174.398 216.445L140.048 321.445L149.552 324.555L183.902 219.555L174.398 216.445ZM144.8 318H118.7V328H144.8V318ZM123.455 321.453L96.9047 239.853L87.3954 242.947L113.945 324.547L123.455 321.453ZM92.15 246.4H99.05V236.4H92.15V246.4ZM94.3083 239.814L67.0083 321.414L76.4917 324.586L103.792 242.986L94.3083 239.814ZM71.75 318H45.65V328H71.75V318ZM377.374 323H372.374V328H377.374V323ZM377.374 218V213H372.374V218H377.374ZM447.124 222.65L445.05 227.2L445.078 227.212L445.106 227.225L447.124 222.65ZM462.874 235.7L458.68 238.422L458.68 238.422L462.874 235.7ZM462.874 276.35L467.046 279.106L467.057 279.089L467.068 279.072L462.874 276.35ZM447.124 289.25L449.142 293.825L449.142 293.825L447.124 289.25ZM390.874 293.75L387.363 290.19L378.682 298.75H390.874V293.75ZM401.674 283.1H406.674V271.147L398.163 279.54L401.674 283.1ZM401.674 323V328H406.674V323H401.674ZM444.124 323L440.006 325.837L441.497 328H444.124V323ZM417.874 284.9V279.9H408.357L413.756 287.737L417.874 284.9ZM443.824 284.9L447.926 282.041L446.434 279.9H443.824V284.9ZM470.374 323V328H479.952L474.476 320.141L470.374 323ZM401.674 285.8L398.044 289.239L406.674 298.348V285.8H401.674ZM390.874 274.4V269.4H379.249L387.244 277.839L390.874 274.4ZM438.274 269.6L441.545 273.382L441.573 273.357L441.602 273.331L438.274 269.6ZM390.874 237.8L387.222 234.385L379.353 242.8H390.874V237.8ZM401.674 226.25H406.674V213.582L398.022 222.835L401.674 226.25ZM382.374 323V218H372.374V323H382.374ZM377.374 223H422.824V213H377.374V223ZM422.824 223C431.687 223 439.046 224.463 445.05 227.2L449.198 218.1C441.602 214.637 432.761 213 422.824 213V223ZM445.106 227.225C451.102 229.87 455.559 233.614 458.68 238.422L467.068 232.978C462.789 226.386 456.745 221.43 449.142 218.075L445.106 227.225ZM458.68 238.422C461.773 243.187 463.424 249.006 463.424 256.1H473.424C473.424 247.394 471.375 239.613 467.068 232.978L458.68 238.422ZM463.424 256.1C463.424 263.08 461.779 268.853 458.68 273.628L467.068 279.072C471.368 272.447 473.424 264.72 473.424 256.1H463.424ZM458.702 273.594C455.587 278.309 451.126 282.019 445.106 284.675L449.142 293.825C456.722 290.481 462.761 285.591 467.046 279.106L458.702 273.594ZM445.106 284.675C439.086 287.331 431.706 288.75 422.824 288.75V298.75C432.741 298.75 441.562 297.169 449.142 293.825L445.106 284.675ZM422.824 288.75H390.874V298.75H422.824V288.75ZM394.385 297.31L405.185 286.66L398.163 279.54L387.363 290.19L394.385 297.31ZM396.674 283.1V323H406.674V283.1H396.674ZM401.674 318H377.374V328H401.674V318ZM448.241 320.163L421.991 282.063L413.756 287.737L440.006 325.837L448.241 320.163ZM417.874 289.9H443.824V279.9H417.874V289.9ZM439.722 287.759L466.272 325.859L474.476 320.141L447.926 282.041L439.722 287.759ZM470.374 318H444.124V328H470.374V318ZM405.304 282.361L394.504 270.961L387.244 277.839L398.044 289.239L405.304 282.361ZM390.874 279.4H421.474V269.4H390.874V279.4ZM421.474 279.4C429.561 279.4 436.56 277.693 441.545 273.382L435.003 265.818C432.588 267.907 428.387 269.4 421.474 269.4V279.4ZM441.602 273.331C446.53 268.936 448.824 262.99 448.824 256.1H438.824C438.824 260.61 437.418 263.664 434.946 265.869L441.602 273.331ZM448.824 256.1C448.824 249.145 446.549 243.146 441.545 238.818L435.003 246.382C437.399 248.454 438.824 251.455 438.824 256.1H448.824ZM441.545 238.818C436.56 234.507 429.561 232.8 421.474 232.8V242.8C428.387 242.8 432.588 244.293 435.003 246.382L441.545 238.818ZM421.474 232.8H390.874V242.8H421.474V232.8ZM394.526 241.215L405.326 229.665L398.022 222.835L387.222 234.385L394.526 241.215ZM396.674 226.25V285.8H406.674V226.25H396.674ZM539.427 299L534.432 299.24L534.991 310.857L543.037 302.459L539.427 299ZM538.077 270.95L534.45 267.508L532.98 269.057L533.082 271.19L538.077 270.95ZM588.327 218V213H586.178L584.7 214.558L588.327 218ZM615.327 218L618.989 221.404L626.798 213H615.327V218ZM570.027 266.75L573.674 270.17L573.682 270.162L573.689 270.154L570.027 266.75ZM556.527 281.15L560.137 284.609L560.156 284.589L560.174 284.57L556.527 281.15ZM517.677 323H512.677V328H517.677V323ZM517.677 218V213H512.677V218H517.677ZM541.827 218H546.827V213H541.827V218ZM541.827 323V328H546.827V323H541.827ZM589.527 323L585.653 326.162L587.154 328H589.527V323ZM552.177 277.25L548.5 273.861L545.56 277.051L548.303 280.412L552.177 277.25ZM568.077 260L571.999 256.899L568.368 252.306L564.4 256.611L568.077 260ZM617.877 323V328H628.202L621.799 319.899L617.877 323ZM544.421 298.76L543.071 270.71L533.082 271.19L534.432 299.24L544.421 298.76ZM541.703 274.392L591.953 221.442L584.7 214.558L534.45 267.508L541.703 274.392ZM588.327 223H615.327V213H588.327V223ZM611.664 214.596L566.364 263.346L573.689 270.154L618.989 221.404L611.664 214.596ZM566.379 263.33L552.879 277.73L560.174 284.57L573.674 270.17L566.379 263.33ZM552.916 277.691L535.816 295.541L543.037 302.459L560.137 284.609L552.916 277.691ZM522.677 323V218H512.677V323H522.677ZM517.677 223H541.827V213H517.677V223ZM536.827 218V323H546.827V218H536.827ZM541.827 318H517.677V328H541.827V318ZM593.4 319.838L556.05 274.088L548.303 280.412L585.653 326.162L593.4 319.838ZM555.853 280.639L571.753 263.389L564.4 256.611L548.5 273.861L555.853 280.639ZM564.154 263.101L613.954 326.101L621.799 319.899L571.999 256.899L564.154 263.101ZM617.877 318H589.527V328H617.877V318ZM666.864 321.5L665.433 326.291L665.462 326.299L665.491 326.308L666.864 321.5ZM648.264 312.65L643.706 310.595L642.077 314.209L645.224 316.619L648.264 312.65ZM656.514 294.35L659.412 290.275L654.456 286.751L651.956 292.295L656.514 294.35ZM672.414 302.3L670.787 307.028L670.833 307.044L670.879 307.059L672.414 302.3ZM702.714 303.95L704.196 308.725L704.246 308.71L704.296 308.693L702.714 303.95ZM709.314 299.9L705.455 296.721L705.455 296.721L709.314 299.9ZM708.114 287.45L705.057 291.406L705.115 291.451L705.174 291.494L708.114 287.45ZM699.414 283.4L697.953 288.182L698.015 288.2L698.076 288.218L699.414 283.4ZM687.414 280.4L686.282 285.27L686.347 285.285L686.412 285.299L687.414 280.4ZM674.364 276.8L672.817 281.554L672.832 281.56L672.848 281.565L674.364 276.8ZM662.514 271.4L659.907 275.666L659.907 275.666L662.514 271.4ZM653.664 262.7L649.398 265.307L649.424 265.35L649.451 265.392L653.664 262.7ZM655.164 232.55L650.991 229.796L650.985 229.806L650.978 229.816L655.164 232.55ZM669.864 220.7L671.902 225.266L671.918 225.259L671.933 225.252L669.864 220.7ZM714.114 218.6L712.902 223.451L712.938 223.46L712.973 223.468L714.114 218.6ZM731.064 225.5L735.696 227.383L737.271 223.51L733.738 221.275L731.064 225.5ZM723.564 243.95L721.084 248.291L726.045 251.126L728.196 245.833L723.564 243.95ZM708.864 237.8L707.491 242.608L707.536 242.621L707.582 242.633L708.864 237.8ZM682.914 237.35L681.193 232.656L681.193 232.656L682.914 237.35ZM676.464 241.7L680.436 244.737L680.478 244.683L680.518 244.627L676.464 241.7ZM677.814 254.3L674.757 258.256L674.815 258.301L674.874 258.344L677.814 254.3ZM686.514 258.2L685.176 263.018L685.176 263.018L686.514 258.2ZM698.364 261.2L697.232 266.07L697.244 266.073L697.256 266.076L698.364 261.2ZM711.414 264.65L709.968 269.436L709.983 269.441L709.998 269.445L711.414 264.65ZM723.414 269.9L726.022 265.634L726.022 265.634L723.414 269.9ZM732.114 278.6L727.848 281.207L727.874 281.25L727.901 281.292L732.114 278.6ZM730.614 308.45L734.762 311.243L734.762 311.243L730.614 308.45ZM715.764 320.3L713.695 315.748L713.682 315.754L713.669 315.76L715.764 320.3ZM691.014 319.8C683.056 319.8 675.47 318.759 668.238 316.692L665.491 326.308C673.659 328.641 682.173 329.8 691.014 329.8V319.8ZM668.295 316.709C660.983 314.525 655.384 311.805 651.305 308.681L645.224 316.619C650.545 320.695 657.346 323.875 665.433 326.291L668.295 316.709ZM652.823 314.705L661.073 296.405L651.956 292.295L643.706 310.595L652.823 314.705ZM653.617 298.425C658.566 301.944 664.309 304.797 670.787 307.028L674.042 297.572C668.32 295.603 663.463 293.156 659.412 290.275L653.617 298.425ZM670.879 307.059C677.558 309.213 684.326 310.3 691.164 310.3V300.3C685.403 300.3 679.671 299.387 673.949 297.541L670.879 307.059ZM691.164 310.3C696.211 310.3 700.622 309.835 704.196 308.725L701.232 299.175C699.007 299.865 695.718 300.3 691.164 300.3V310.3ZM704.296 308.693C707.819 307.519 710.97 305.755 713.174 303.079L705.455 296.721C704.859 297.445 703.61 298.381 701.133 299.207L704.296 308.693ZM713.174 303.079C715.311 300.484 716.414 297.411 716.414 294.05H706.414C706.414 295.089 706.118 295.916 705.455 296.721L713.174 303.079ZM716.414 294.05C716.414 289.706 714.593 285.979 711.055 283.406L705.174 291.494C706.036 292.121 706.414 292.794 706.414 294.05H716.414ZM711.172 283.494C708.317 281.287 704.774 279.699 700.753 278.582L698.076 288.218C701.255 289.101 703.512 290.213 705.057 291.406L711.172 283.494ZM700.876 278.618C697.099 277.464 692.943 276.427 688.416 275.501L686.412 285.299C690.686 286.173 694.53 287.136 697.953 288.182L700.876 278.618ZM688.547 275.53C684.382 274.561 680.16 273.397 675.88 272.035L672.848 281.565C677.369 283.003 681.847 284.239 686.282 285.27L688.547 275.53ZM675.912 272.046C671.957 270.758 668.366 269.116 665.122 267.134L659.907 275.666C663.863 278.084 668.172 280.042 672.817 281.554L675.912 272.046ZM665.122 267.134C662.178 265.335 659.774 262.976 657.878 260.008L649.451 265.392C652.155 269.624 655.651 273.065 659.907 275.666L665.122 267.134ZM657.931 260.093C656.343 257.495 655.364 253.873 655.364 248.9H645.364C645.364 255.127 646.586 260.705 649.398 265.307L657.931 260.093ZM655.364 248.9C655.364 243.845 656.696 239.35 659.351 235.284L650.978 229.816C647.233 235.55 645.364 241.955 645.364 248.9H655.364ZM659.338 235.304C662.021 231.238 666.106 227.852 671.902 225.266L667.827 216.134C660.623 219.348 654.908 223.862 650.991 229.796L659.338 235.304ZM671.933 225.252C677.692 222.634 685.182 221.2 694.614 221.2V211.2C684.247 211.2 675.237 212.766 667.795 216.148L671.933 225.252ZM694.614 221.2C700.806 221.2 706.899 221.95 712.902 223.451L715.327 213.749C708.53 212.05 701.623 211.2 694.614 211.2V221.2ZM712.973 223.468C718.902 224.858 724.021 226.961 728.391 229.725L733.738 221.275C728.308 217.839 722.127 215.342 715.255 213.732L712.973 223.468ZM726.433 223.617L718.933 242.067L728.196 245.833L735.696 227.383L726.433 223.617ZM726.045 239.609C720.811 236.618 715.51 234.39 710.147 232.967L707.582 242.633C712.019 243.81 716.518 245.682 721.084 248.291L726.045 239.609ZM710.238 232.992C704.929 231.475 699.666 230.7 694.464 230.7V240.7C698.663 240.7 703 241.325 707.491 242.608L710.238 232.992ZM694.464 230.7C689.428 230.7 684.939 231.282 681.193 232.656L684.636 242.044C686.89 241.218 690.101 240.7 694.464 240.7V230.7ZM681.193 232.656C677.649 233.955 674.499 235.881 672.411 238.773L680.518 244.627C681.03 243.919 682.18 242.945 684.636 242.044L681.193 232.656ZM672.493 238.663C670.475 241.302 669.514 244.39 669.514 247.7H679.514C679.514 246.41 679.854 245.498 680.436 244.737L672.493 238.663ZM669.514 247.7C669.514 252.002 671.375 255.643 674.757 258.256L680.872 250.344C679.854 249.557 679.514 248.798 679.514 247.7H669.514ZM674.874 258.344C677.701 260.4 681.2 261.913 685.176 263.018L687.853 253.382C684.629 252.487 682.328 251.4 680.755 250.256L674.874 258.344ZM685.176 263.018C688.855 264.04 692.875 265.057 697.232 266.07L699.497 256.33C695.254 255.343 691.374 254.36 687.853 253.382L685.176 263.018ZM697.256 266.076C701.543 267.05 705.78 268.17 709.968 269.436L712.861 259.864C708.449 258.53 703.986 257.35 699.473 256.324L697.256 266.076ZM709.998 269.445C714.016 270.632 717.61 272.213 720.807 274.166L726.022 265.634C722.019 263.187 717.613 261.268 712.831 259.855L709.998 269.445ZM720.807 274.166C723.73 275.953 726.062 278.284 727.848 281.207L736.381 275.993C733.767 271.716 730.299 268.247 726.022 265.634L720.807 274.166ZM727.901 281.292C729.559 283.887 730.564 287.433 730.564 292.25H740.564C740.564 286.067 739.27 280.513 736.328 275.908L727.901 281.292ZM730.564 292.25C730.564 297.154 729.212 301.581 726.467 305.657L734.762 311.243C738.617 305.519 740.564 299.146 740.564 292.25H730.564ZM726.467 305.657C723.79 309.632 719.645 313.044 713.695 315.748L717.833 324.852C725.084 321.556 730.839 317.068 734.762 311.243L726.467 305.657ZM713.669 315.76C708.033 318.362 700.56 319.8 691.014 319.8V329.8C701.469 329.8 710.496 328.238 717.86 324.84L713.669 315.76Z" fill="black" mask="url(#path-2-outside-1_917_3535)"/>
<mask id="mask0_917_3535" style="mask-type:alpha" maskUnits="userSpaceOnUse" x="206" y="231" width="40" height="80">
<rect width="3.63563" height="3.63563" transform="matrix(0.6439 -0.76511 0.6439 0.76511 206 233.782)" fill="#111111"/>
<rect width="3.63563" height="3.63563" transform="matrix(0.6439 -0.76511 0.6439 0.76511 206 239.028)" fill="#111111"/>
<rect width="3.63563" height="3.63563" transform="matrix(0.6439 -0.76511 0.6439 0.76511 206 244.274)" fill="#111111"/>
<rect width="3.63563" height="3.63563" transform="matrix(0.6439 -0.76511 0.6439 0.76511 206 249.519)" fill="#111111"/>
<rect width="3.63563" height="3.63563" transform="matrix(0.6439 -0.76511 0.6439 0.76511 206 254.765)" fill="#111111"/>
<rect width="3.63563" height="3.63563" transform="matrix(0.6439 -0.76511 0.6439 0.76511 206 260.011)" fill="#111111"/>
<rect width="3.63563" height="3.63563" transform="matrix(0.6439 -0.76511 0.6439 0.76511 206 265.257)" fill="#111111"/>
<rect width="3.63563" height="3.63563" transform="matrix(0.6439 -0.76511 0.6439 0.76511 206 270.503)" fill="#111111"/>
<rect width="3.63563" height="3.63563" transform="matrix(0.6439 -0.76511 0.6439 0.76511 206 275.748)" fill="#111111"/>
<rect width="3.63563" height="3.63563" transform="matrix(0.6439 -0.76511 0.6439 0.76511 206 280.994)" fill="#111111"/>
<rect width="3.63563" height="3.63563" transform="matrix(0.6439 -0.76511 0.6439 0.76511 206 286.24)" fill="#111111"/>
<rect width="3.63563" height="3.63563" transform="matrix(0.6439 -0.76511 0.6439 0.76511 206 291.486)" fill="#111111"/>
<rect width="3.63563" height="3.63563" transform="matrix(0.6439 -0.76511 0.6439 0.76511 206 296.732)" fill="#111111"/>
<rect width="3.63563" height="3.63563" transform="matrix(0.6439 -0.76511 0.6439 0.76511 206 301.977)" fill="#111111"/>
<rect width="3.63563" height="3.63563" transform="matrix(0.6439 -0.76511 0.6439 0.76511 210.415 233.782)" fill="#111111"/>
<rect width="3.63563" height="3.63563" transform="matrix(0.6439 -0.76511 0.6439 0.76511 210.415 239.028)" fill="#111111"/>
<rect width="3.63563" height="3.63563" transform="matrix(0.6439 -0.76511 0.6439 0.76511 210.415 244.274)" fill="#111111"/>
<rect width="3.63563" height="3.63563" transform="matrix(0.6439 -0.76511 0.6439 0.76511 210.415 249.519)" fill="#111111"/>
<rect width="3.63563" height="3.63563" transform="matrix(0.6439 -0.76511 0.6439 0.76511 210.415 254.765)" fill="#111111"/>
<rect width="3.63563" height="3.63563" transform="matrix(0.6439 -0.76511 0.6439 0.76511 210.415 260.011)" fill="#111111"/>
<rect width="3.63563" height="3.63563" transform="matrix(0.6439 -0.76511 0.6439 0.76511 210.415 265.257)" fill="#111111"/>
<rect width="3.63563" height="3.63563" transform="matrix(0.6439 -0.76511 0.6439 0.76511 210.415 270.503)" fill="#111111"/>
<rect width="3.63563" height="3.63563" transform="matrix(0.6439 -0.76511 0.6439 0.76511 210.415 275.748)" fill="#111111"/>
<rect width="3.63563" height="3.63563" transform="matrix(0.6439 -0.76511 0.6439 0.76511 210.415 280.994)" fill="#111111"/>
<rect width="3.63563" height="3.63563" transform="matrix(0.6439 -0.76511 0.6439 0.76511 210.415 286.24)" fill="#111111"/>
<rect width="3.63563" height="3.63563" transform="matrix(0.6439 -0.76511 0.6439 0.76511 210.415 291.486)" fill="#111111"/>
<rect width="3.63563" height="3.63563" transform="matrix(0.6439 -0.76511 0.6439 0.76511 210.415 296.732)" fill="#111111"/>
<rect width="3.63563" height="3.63563" transform="matrix(0.6439 -0.76511 0.6439 0.76511 210.415 301.977)" fill="#111111"/>
<rect width="3.63563" height="3.63563" transform="matrix(0.6439 -0.76511 0.6439 0.76511 214.83 233.782)" fill="#111111"/>
<rect width="3.63563" height="3.63563" transform="matrix(0.6439 -0.76511 0.6439 0.76511 214.83 239.028)" fill="#111111"/>
<rect width="3.63563" height="3.63563" transform="matrix(0.6439 -0.76511 0.6439 0.76511 214.83 244.274)" fill="#111111"/>
<rect width="3.63563" height="3.63563" transform="matrix(0.6439 -0.76511 0.6439 0.76511 214.83 249.519)" fill="#111111"/>
<rect width="3.63563" height="3.63563" transform="matrix(0.6439 -0.76511 0.6439 0.76511 214.83 254.765)" fill="#111111"/>
<rect width="3.63563" height="3.63563" transform="matrix(0.6439 -0.76511 0.6439 0.76511 214.83 260.011)" fill="#111111"/>
<rect width="3.63563" height="3.63563" transform="matrix(0.6439 -0.76511 0.6439 0.76511 214.83 265.257)" fill="#111111"/>
<rect width="3.63563" height="3.63563" transform="matrix(0.6439 -0.76511 0.6439 0.76511 214.83 270.503)" fill="#111111"/>
<rect width="3.63563" height="3.63563" transform="matrix(0.6439 -0.76511 0.6439 0.76511 214.83 275.748)" fill="#111111"/>
<rect width="3.63563" height="3.63563" transform="matrix(0.6439 -0.76511 0.6439 0.76511 214.83 280.994)" fill="#111111"/>
<rect width="3.63563" height="3.63563" transform="matrix(0.6439 -0.76511 0.6439 0.76511 214.83 286.24)" fill="#111111"/>
<rect width="3.63563" height="3.63563" transform="matrix(0.6439 -0.76511 0.6439 0.76511 214.83 291.486)" fill="#111111"/>
<rect width="3.63563" height="3.63563" transform="matrix(0.6439 -0.76511 0.6439 0.76511 214.83 296.732)" fill="#111111"/>
<rect width="3.63563" height="3.63563" transform="matrix(0.6439 -0.76511 0.6439 0.76511 214.83 301.977)" fill="#111111"/>
<rect width="3.63563" height="3.63563" transform="matrix(0.6439 -0.76511 0.6439 0.76511 219.244 233.782)" fill="#111111"/>
<rect width="3.63563" height="3.63563" transform="matrix(0.6439 -0.76511 0.6439 0.76511 219.244 239.028)" fill="#111111"/>
<rect width="3.63563" height="3.63563" transform="matrix(0.6439 -0.76511 0.6439 0.76511 219.244 244.274)" fill="#111111"/>
<rect width="3.63563" height="3.63563" transform="matrix(0.6439 -0.76511 0.6439 0.76511 219.244 249.519)" fill="#111111"/>
<rect width="3.63563" height="3.63563" transform="matrix(0.6439 -0.76511 0.6439 0.76511 219.244 254.765)" fill="#111111"/>
<rect width="3.63563" height="3.63563" transform="matrix(0.6439 -0.76511 0.6439 0.76511 219.244 260.011)" fill="#111111"/>
<rect width="3.63563" height="3.63563" transform="matrix(0.6439 -0.76511 0.6439 0.76511 219.244 265.257)" fill="#111111"/>
<rect width="3.63563" height="3.63563" transform="matrix(0.6439 -0.76511 0.6439 0.76511 219.244 270.503)" fill="#111111"/>
<rect width="3.63563" height="3.63563" transform="matrix(0.6439 -0.76511 0.6439 0.76511 219.244 275.748)" fill="#111111"/>
<rect width="3.63563" height="3.63563" transform="matrix(0.6439 -0.76511 0.6439 0.76511 219.244 280.994)" fill="#111111"/>
<rect width="3.63563" height="3.63563" transform="matrix(0.6439 -0.76511 0.6439 0.76511 219.244 286.24)" fill="#111111"/>
<rect width="3.63563" height="3.63563" transform="matrix(0.6439 -0.76511 0.6439 0.76511 219.244 291.486)" fill="#111111"/>
<rect width="3.63563" height="3.63563" transform="matrix(0.6439 -0.76511 0.6439 0.76511 219.244 296.732)" fill="#111111"/>
<rect width="3.63563" height="3.63563" transform="matrix(0.6439 -0.76511 0.6439 0.76511 219.244 301.977)" fill="#111111"/>
<rect width="3.63563" height="3.63563" transform="matrix(0.6439 -0.76511 0.6439 0.76511 214.83 301.977)" fill="#111111"/>
<rect width="3.63563" height="3.63563" transform="matrix(0.6439 -0.76511 0.6439 0.76511 219.244 301.977)" fill="#111111"/>
<rect width="3.63563" height="3.63563" transform="matrix(0.6439 -0.76511 0.6439 0.76511 223.659 233.782)" fill="#111111"/>
<rect width="3.63563" height="3.63563" transform="matrix(0.6439 -0.76511 0.6439 0.76511 223.659 239.028)" fill="#111111"/>
<rect width="3.63563" height="3.63563" transform="matrix(0.6439 -0.76511 0.6439 0.76511 223.659 244.274)" fill="#111111"/>
<rect width="3.63563" height="3.63563" transform="matrix(0.6439 -0.76511 0.6439 0.76511 223.659 249.519)" fill="#111111"/>
<rect width="3.63563" height="3.63563" transform="matrix(0.6439 -0.76511 0.6439 0.76511 223.659 254.765)" fill="#111111"/>
<rect width="3.63563" height="3.63563" transform="matrix(0.6439 -0.76511 0.6439 0.76511 223.659 260.011)" fill="#111111"/>
<rect width="3.63563" height="3.63563" transform="matrix(0.6439 -0.76511 0.6439 0.76511 223.659 265.257)" fill="#111111"/>
<rect width="3.63563" height="3.63563" transform="matrix(0.6439 -0.76511 0.6439 0.76511 223.659 270.503)" fill="#111111"/>
<rect width="3.63563" height="3.63563" transform="matrix(0.6439 -0.76511 0.6439 0.76511 223.659 275.748)" fill="#111111"/>
<rect width="3.63563" height="3.63563" transform="matrix(0.6439 -0.76511 0.6439 0.76511 223.659 280.994)" fill="#111111"/>
<rect width="3.63563" height="3.63563" transform="matrix(0.6439 -0.76511 0.6439 0.76511 223.659 286.24)" fill="#111111"/>
<rect width="3.63563" height="3.63563" transform="matrix(0.6439 -0.76511 0.6439 0.76511 223.659 291.486)" fill="#111111"/>
<rect width="3.63563" height="3.63563" transform="matrix(0.6439 -0.76511 0.6439 0.76511 223.659 296.732)" fill="#111111"/>
<rect width="3.63563" height="3.63563" transform="matrix(0.6439 -0.76511 0.6439 0.76511 223.659 301.977)" fill="#111111"/>
<rect width="3.63563" height="3.63563" transform="matrix(0.6439 -0.76511 0.6439 0.76511 228.074 233.782)" fill="#111111"/>
<rect width="3.63563" height="3.63563" transform="matrix(0.6439 -0.76511 0.6439 0.76511 228.074 239.028)" fill="#111111"/>
<rect width="3.63563" height="3.63563" transform="matrix(0.6439 -0.76511 0.6439 0.76511 228.074 244.274)" fill="#111111"/>
<rect width="3.63563" height="3.63563" transform="matrix(0.6439 -0.76511 0.6439 0.76511 228.074 249.519)" fill="#111111"/>
<rect width="3.63563" height="3.63563" transform="matrix(0.6439 -0.76511 0.6439 0.76511 228.074 254.765)" fill="#111111"/>
<rect width="3.63563" height="3.63563" transform="matrix(0.6439 -0.76511 0.6439 0.76511 228.074 260.011)" fill="#111111"/>
<rect width="3.63563" height="3.63563" transform="matrix(0.6439 -0.76511 0.6439 0.76511 228.074 265.257)" fill="#111111"/>
<rect width="3.63563" height="3.63563" transform="matrix(0.6439 -0.76511 0.6439 0.76511 228.074 270.503)" fill="#111111"/>
<rect width="3.63563" height="3.63563" transform="matrix(0.6439 -0.76511 0.6439 0.76511 228.074 275.748)" fill="#111111"/>
<rect width="3.63563" height="3.63563" transform="matrix(0.6439 -0.76511 0.6439 0.76511 228.074 280.994)" fill="#111111"/>
<rect width="3.63563" height="3.63563" transform="matrix(0.6439 -0.76511 0.6439 0.76511 228.074 286.24)" fill="#111111"/>
<rect width="3.63563" height="3.63563" transform="matrix(0.6439 -0.76511 0.6439 0.76511 228.074 291.486)" fill="#111111"/>
<rect width="3.63563" height="3.63563" transform="matrix(0.6439 -0.76511 0.6439 0.76511 228.074 296.732)" fill="#111111"/>
<rect width="3.63563" height="3.63563" transform="matrix(0.6439 -0.76511 0.6439 0.76511 228.074 301.977)" fill="#111111"/>
<rect width="3.63563" height="3.63563" transform="matrix(0.6439 -0.76511 0.6439 0.76511 232.488 233.782)" fill="#111111"/>
<rect width="3.63563" height="3.63563" transform="matrix(0.6439 -0.76511 0.6439 0.76511 232.488 239.028)" fill="#111111"/>
<rect width="3.63563" height="3.63563" transform="matrix(0.6439 -0.76511 0.6439 0.76511 232.488 244.274)" fill="#111111"/>
<rect width="3.63563" height="3.63563" transform="matrix(0.6439 -0.76511 0.6439 0.76511 232.488 249.519)" fill="#111111"/>
<rect width="3.63563" height="3.63563" transform="matrix(0.6439 -0.76511 0.6439 0.76511 232.488 254.765)" fill="#111111"/>
<rect width="3.63563" height="3.63563" transform="matrix(0.6439 -0.76511 0.6439 0.76511 232.488 260.011)" fill="#111111"/>
<rect width="3.63563" height="3.63563" transform="matrix(0.6439 -0.76511 0.6439 0.76511 232.488 265.257)" fill="#111111"/>
<rect width="3.63563" height="3.63563" transform="matrix(0.6439 -0.76511 0.6439 0.76511 232.488 270.503)" fill="#111111"/>
<rect width="3.63563" height="3.63563" transform="matrix(0.6439 -0.76511 0.6439 0.76511 232.488 275.748)" fill="#111111"/>
<rect width="3.63563" height="3.63563" transform="matrix(0.6439 -0.76511 0.6439 0.76511 232.488 280.994)" fill="#111111"/>
<rect width="3.63563" height="3.63563" transform="matrix(0.6439 -0.76511 0.6439 0.76511 232.488 286.24)" fill="#111111"/>
<rect width="3.63563" height="3.63563" transform="matrix(0.6439 -0.76511 0.6439 0.76511 232.488 291.486)" fill="#111111"/>
<rect width="3.63563" height="3.63563" transform="matrix(0.6439 -0.76511 0.6439 0.76511 232.488 296.732)" fill="#111111"/>
<rect width="3.63563" height="3.63563" transform="matrix(0.6439 -0.76511 0.6439 0.76511 232.488 301.977)" fill="#111111"/>
<rect width="3.63563" height="3.63563" transform="matrix(0.6439 -0.76511 0.6439 0.76511 236.903 233.782)" fill="#111111"/>
<rect width="3.63563" height="3.63563" transform="matrix(0.6439 -0.76511 0.6439 0.76511 236.903 239.028)" fill="#111111"/>
<rect width="3.63563" height="3.63563" transform="matrix(0.6439 -0.76511 0.6439 0.76511 236.903 244.274)" fill="#111111"/>
<rect width="3.63563" height="3.63563" transform="matrix(0.6439 -0.76511 0.6439 0.76511 236.903 249.519)" fill="#111111"/>
<rect width="3.63563" height="3.63563" transform="matrix(0.6439 -0.76511 0.6439 0.76511 236.903 254.765)" fill="#111111"/>
<rect width="3.63563" height="3.63563" transform="matrix(0.6439 -0.76511 0.6439 0.76511 236.903 260.011)" fill="#111111"/>
<rect width="3.63563" height="3.63563" transform="matrix(0.6439 -0.76511 0.6439 0.76511 236.903 265.257)" fill="#111111"/>
<rect width="3.63563" height="3.63563" transform="matrix(0.6439 -0.76511 0.6439 0.76511 236.903 270.503)" fill="#111111"/>
<rect width="3.63563" height="3.63563" transform="matrix(0.6439 -0.76511 0.6439 0.76511 236.903 275.748)" fill="#111111"/>
<rect width="3.63563" height="3.63563" transform="matrix(0.6439 -0.76511 0.6439 0.76511 236.903 280.994)" fill="#111111"/>
<rect width="3.63563" height="3.63563" transform="matrix(0.6439 -0.76511 0.6439 0.76511 236.903 286.24)" fill="#111111"/>
<rect width="3.63563" height="3.63563" transform="matrix(0.6439 -0.76511 0.6439 0.76511 236.903 291.486)" fill="#111111"/>
<rect width="3.63563" height="3.63563" transform="matrix(0.6439 -0.76511 0.6439 0.76511 236.903 296.732)" fill="#111111"/>
<rect width="3.63563" height="3.63563" transform="matrix(0.6439 -0.76511 0.6439 0.76511 236.903 301.977)" fill="#111111"/>
<rect width="3.63563" height="3.63563" transform="matrix(0.6439 -0.76511 0.6439 0.76511 241.318 233.782)" fill="#111111"/>
<rect width="3.63563" height="3.63563" transform="matrix(0.6439 -0.76511 0.6439 0.76511 241.318 239.028)" fill="#111111"/>
<rect width="3.63563" height="3.63563" transform="matrix(0.6439 -0.76511 0.6439 0.76511 241.318 244.274)" fill="#111111"/>
<rect width="3.63563" height="3.63563" transform="matrix(0.6439 -0.76511 0.6439 0.76511 241.318 249.519)" fill="#111111"/>
<rect width="3.63563" height="3.63563" transform="matrix(0.6439 -0.76511 0.6439 0.76511 241.318 254.765)" fill="#111111"/>
<rect width="3.63563" height="3.63563" transform="matrix(0.6439 -0.76511 0.6439 0.76511 241.318 260.011)" fill="#111111"/>
<rect width="3.63563" height="3.63563" transform="matrix(0.6439 -0.76511 0.6439 0.76511 241.318 265.257)" fill="#111111"/>
<rect width="3.63563" height="3.63563" transform="matrix(0.6439 -0.76511 0.6439 0.76511 241.318 270.503)" fill="#111111"/>
<rect width="3.63563" height="3.63563" transform="matrix(0.6439 -0.76511 0.6439 0.76511 241.318 275.748)" fill="#111111"/>
<rect width="3.63563" height="3.63563" transform="matrix(0.6439 -0.76511 0.6439 0.76511 241.318 280.994)" fill="#111111"/>
<rect width="3.63563" height="3.63563" transform="matrix(0.6439 -0.76511 0.6439 0.76511 241.318 286.24)" fill="#111111"/>
<rect width="3.63563" height="3.63563" transform="matrix(0.6439 -0.76511 0.6439 0.76511 241.318 291.486)" fill="#111111"/>
<rect width="3.63563" height="3.63563" transform="matrix(0.6439 -0.76511 0.6439 0.76511 241.318 296.732)" fill="#111111"/>
<rect width="3.63563" height="3.63563" transform="matrix(0.6439 -0.76511 0.6439 0.76511 241.318 301.977)" fill="#111111"/>
<rect width="3.63563" height="3.63563" transform="matrix(0.6439 -0.76511 0.6439 0.76511 236.903 307.219)" fill="#111111"/>
<rect width="3.63563" height="3.63563" transform="matrix(0.6439 -0.76511 0.6439 0.76511 241.318 307.219)" fill="#111111"/>
<rect width="3.63563" height="3.63563" transform="matrix(0.6439 -0.76511 0.6439 0.76511 228.078 307.219)" fill="#111111"/>
<rect width="3.63563" height="3.63563" transform="matrix(0.6439 -0.76511 0.6439 0.76511 232.493 307.219)" fill="#111111"/>
<rect width="3.63563" height="3.63563" transform="matrix(0.6439 -0.76511 0.6439 0.76511 219.252 307.219)" fill="#111111"/>
<rect width="3.63563" height="3.63563" transform="matrix(0.6439 -0.76511 0.6439 0.76511 223.667 307.219)" fill="#111111"/>
<rect width="3.63563" height="3.63563" transform="matrix(0.6439 -0.76511 0.6439 0.76511 210.427 307.219)" fill="#111111"/>
<rect width="3.63563" height="3.63563" transform="matrix(0.6439 -0.76511 0.6439 0.76511 214.842 307.219)" fill="#111111"/>
</mask>
<g mask="url(#mask0_917_3535)">
<rect x="207.581" y="233.24" width="34.7753" height="76.1725" rx="17.3877" fill="black"/>
</g>
<path fill-rule="evenodd" clip-rule="evenodd" d="M236 213C217.775 213 203 229.435 203 249.708V291.292C203 311.565 217.775 328 236 328C254.225 328 269 311.565 269 291.292V249.708C269 229.435 254.225 213 236 213ZM236 218C220.536 218 208 233.006 208 251.516V289.484C208 307.994 220.536 323 236 323C251.464 323 264 307.994 264 289.484V251.516C264 233.006 251.464 218 236 218Z" fill="black"/>
<mask id="mask1_917_3535" style="mask-type:alpha" maskUnits="userSpaceOnUse" x="287" y="231" width="40" height="80">
<rect width="3.63563" height="3.63563" transform="matrix(0.6439 -0.76511 0.6439 0.76511 287 233.782)" fill="#111111"/>
<rect width="3.63563" height="3.63563" transform="matrix(0.6439 -0.76511 0.6439 0.76511 287 239.028)" fill="#111111"/>
<rect width="3.63563" height="3.63563" transform="matrix(0.6439 -0.76511 0.6439 0.76511 287 244.274)" fill="#111111"/>
<rect width="3.63563" height="3.63563" transform="matrix(0.6439 -0.76511 0.6439 0.76511 287 249.519)" fill="#111111"/>
<rect width="3.63563" height="3.63563" transform="matrix(0.6439 -0.76511 0.6439 0.76511 287 254.765)" fill="#111111"/>
<rect width="3.63563" height="3.63563" transform="matrix(0.6439 -0.76511 0.6439 0.76511 287 260.011)" fill="#111111"/>
<rect width="3.63563" height="3.63563" transform="matrix(0.6439 -0.76511 0.6439 0.76511 287 265.257)" fill="#111111"/>
<rect width="3.63563" height="3.63563" transform="matrix(0.6439 -0.76511 0.6439 0.76511 287 270.503)" fill="#111111"/>
<rect width="3.63563" height="3.63563" transform="matrix(0.6439 -0.76511 0.6439 0.76511 287 275.748)" fill="#111111"/>
<rect width="3.63563" height="3.63563" transform="matrix(0.6439 -0.76511 0.6439 0.76511 287 280.994)" fill="#111111"/>
<rect width="3.63563" height="3.63563" transform="matrix(0.6439 -0.76511 0.6439 0.76511 287 286.24)" fill="#111111"/>
<rect width="3.63563" height="3.63563" transform="matrix(0.6439 -0.76511 0.6439 0.76511 287 291.486)" fill="#111111"/>
<rect width="3.63563" height="3.63563" transform="matrix(0.6439 -0.76511 0.6439 0.76511 287 296.732)" fill="#111111"/>
<rect width="3.63563" height="3.63563" transform="matrix(0.6439 -0.76511 0.6439 0.76511 287 301.977)" fill="#111111"/>
<rect width="3.63563" height="3.63563" transform="matrix(0.6439 -0.76511 0.6439 0.76511 291.415 233.782)" fill="#111111"/>
<rect width="3.63563" height="3.63563" transform="matrix(0.6439 -0.76511 0.6439 0.76511 291.415 239.028)" fill="#111111"/>
<rect width="3.63563" height="3.63563" transform="matrix(0.6439 -0.76511 0.6439 0.76511 291.415 244.274)" fill="#111111"/>
<rect width="3.63563" height="3.63563" transform="matrix(0.6439 -0.76511 0.6439 0.76511 291.415 249.519)" fill="#111111"/>
<rect width="3.63563" height="3.63563" transform="matrix(0.6439 -0.76511 0.6439 0.76511 291.415 254.765)" fill="#111111"/>
<rect width="3.63563" height="3.63563" transform="matrix(0.6439 -0.76511 0.6439 0.76511 291.415 260.011)" fill="#111111"/>
<rect width="3.63563" height="3.63563" transform="matrix(0.6439 -0.76511 0.6439 0.76511 291.415 265.257)" fill="#111111"/>
<rect width="3.63563" height="3.63563" transform="matrix(0.6439 -0.76511 0.6439 0.76511 291.415 270.503)" fill="#111111"/>
<rect width="3.63563" height="3.63563" transform="matrix(0.6439 -0.76511 0.6439 0.76511 291.415 275.748)" fill="#111111"/>
<rect width="3.63563" height="3.63563" transform="matrix(0.6439 -0.76511 0.6439 0.76511 291.415 280.994)" fill="#111111"/>
<rect width="3.63563" height="3.63563" transform="matrix(0.6439 -0.76511 0.6439 0.76511 291.415 286.24)" fill="#111111"/>
<rect width="3.63563" height="3.63563" transform="matrix(0.6439 -0.76511 0.6439 0.76511 291.415 291.486)" fill="#111111"/>
<rect width="3.63563" height="3.63563" transform="matrix(0.6439 -0.76511 0.6439 0.76511 291.415 296.732)" fill="#111111"/>
<rect width="3.63563" height="3.63563" transform="matrix(0.6439 -0.76511 0.6439 0.76511 291.415 301.977)" fill="#111111"/>
<rect width="3.63563" height="3.63563" transform="matrix(0.6439 -0.76511 0.6439 0.76511 295.83 233.782)" fill="#111111"/>
<rect width="3.63563" height="3.63563" transform="matrix(0.6439 -0.76511 0.6439 0.76511 295.83 239.028)" fill="#111111"/>
<rect width="3.63563" height="3.63563" transform="matrix(0.6439 -0.76511 0.6439 0.76511 295.83 244.274)" fill="#111111"/>
<rect width="3.63563" height="3.63563" transform="matrix(0.6439 -0.76511 0.6439 0.76511 295.83 249.519)" fill="#111111"/>
<rect width="3.63563" height="3.63563" transform="matrix(0.6439 -0.76511 0.6439 0.76511 295.83 254.765)" fill="#111111"/>
<rect width="3.63563" height="3.63563" transform="matrix(0.6439 -0.76511 0.6439 0.76511 295.83 260.011)" fill="#111111"/>
<rect width="3.63563" height="3.63563" transform="matrix(0.6439 -0.76511 0.6439 0.76511 295.83 265.257)" fill="#111111"/>
<rect width="3.63563" height="3.63563" transform="matrix(0.6439 -0.76511 0.6439 0.76511 295.83 270.503)" fill="#111111"/>
<rect width="3.63563" height="3.63563" transform="matrix(0.6439 -0.76511 0.6439 0.76511 295.83 275.748)" fill="#111111"/>
<rect width="3.63563" height="3.63563" transform="matrix(0.6439 -0.76511 0.6439 0.76511 295.83 280.994)" fill="#111111"/>
<rect width="3.63563" height="3.63563" transform="matrix(0.6439 -0.76511 0.6439 0.76511 295.83 286.24)" fill="#111111"/>
<rect width="3.63563" height="3.63563" transform="matrix(0.6439 -0.76511 0.6439 0.76511 295.83 291.486)" fill="#111111"/>
<rect width="3.63563" height="3.63563" transform="matrix(0.6439 -0.76511 0.6439 0.76511 295.83 296.732)" fill="#111111"/>
<rect width="3.63563" height="3.63563" transform="matrix(0.6439 -0.76511 0.6439 0.76511 295.83 301.977)" fill="#111111"/>
<rect width="3.63563" height="3.63563" transform="matrix(0.6439 -0.76511 0.6439 0.76511 300.244 233.782)" fill="#111111"/>
<rect width="3.63563" height="3.63563" transform="matrix(0.6439 -0.76511 0.6439 0.76511 300.244 239.028)" fill="#111111"/>
<rect width="3.63563" height="3.63563" transform="matrix(0.6439 -0.76511 0.6439 0.76511 300.244 244.274)" fill="#111111"/>
<rect width="3.63563" height="3.63563" transform="matrix(0.6439 -0.76511 0.6439 0.76511 300.244 249.519)" fill="#111111"/>
<rect width="3.63563" height="3.63563" transform="matrix(0.6439 -0.76511 0.6439 0.76511 300.244 254.765)" fill="#111111"/>
<rect width="3.63563" height="3.63563" transform="matrix(0.6439 -0.76511 0.6439 0.76511 300.244 260.011)" fill="#111111"/>
<rect width="3.63563" height="3.63563" transform="matrix(0.6439 -0.76511 0.6439 0.76511 300.244 265.257)" fill="#111111"/>
<rect width="3.63563" height="3.63563" transform="matrix(0.6439 -0.76511 0.6439 0.76511 300.244 270.503)" fill="#111111"/>
<rect width="3.63563" height="3.63563" transform="matrix(0.6439 -0.76511 0.6439 0.76511 300.244 275.748)" fill="#111111"/>
<rect width="3.63563" height="3.63563" transform="matrix(0.6439 -0.76511 0.6439 0.76511 300.244 280.994)" fill="#111111"/>
<rect width="3.63563" height="3.63563" transform="matrix(0.6439 -0.76511 0.6439 0.76511 300.244 286.24)" fill="#111111"/>
<rect width="3.63563" height="3.63563" transform="matrix(0.6439 -0.76511 0.6439 0.76511 300.244 291.486)" fill="#111111"/>
<rect width="3.63563" height="3.63563" transform="matrix(0.6439 -0.76511 0.6439 0.76511 300.244 296.732)" fill="#111111"/>
<rect width="3.63563" height="3.63563" transform="matrix(0.6439 -0.76511 0.6439 0.76511 300.244 301.977)" fill="#111111"/>
<rect width="3.63563" height="3.63563" transform="matrix(0.6439 -0.76511 0.6439 0.76511 295.83 301.977)" fill="#111111"/>
<rect width="3.63563" height="3.63563" transform="matrix(0.6439 -0.76511 0.6439 0.76511 300.244 301.977)" fill="#111111"/>
<rect width="3.63563" height="3.63563" transform="matrix(0.6439 -0.76511 0.6439 0.76511 304.659 233.782)" fill="#111111"/>
<rect width="3.63563" height="3.63563" transform="matrix(0.6439 -0.76511 0.6439 0.76511 304.659 239.028)" fill="#111111"/>
<rect width="3.63563" height="3.63563" transform="matrix(0.6439 -0.76511 0.6439 0.76511 304.659 244.274)" fill="#111111"/>
<rect width="3.63563" height="3.63563" transform="matrix(0.6439 -0.76511 0.6439 0.76511 304.659 249.519)" fill="#111111"/>
<rect width="3.63563" height="3.63563" transform="matrix(0.6439 -0.76511 0.6439 0.76511 304.659 254.765)" fill="#111111"/>
<rect width="3.63563" height="3.63563" transform="matrix(0.6439 -0.76511 0.6439 0.76511 304.659 260.011)" fill="#111111"/>
<rect width="3.63563" height="3.63563" transform="matrix(0.6439 -0.76511 0.6439 0.76511 304.659 265.257)" fill="#111111"/>
<rect width="3.63563" height="3.63563" transform="matrix(0.6439 -0.76511 0.6439 0.76511 304.659 270.503)" fill="#111111"/>
<rect width="3.63563" height="3.63563" transform="matrix(0.6439 -0.76511 0.6439 0.76511 304.659 275.748)" fill="#111111"/>
<rect width="3.63563" height="3.63563" transform="matrix(0.6439 -0.76511 0.6439 0.76511 304.659 280.994)" fill="#111111"/>
<rect width="3.63563" height="3.63563" transform="matrix(0.6439 -0.76511 0.6439 0.76511 304.659 286.24)" fill="#111111"/>
<rect width="3.63563" height="3.63563" transform="matrix(0.6439 -0.76511 0.6439 0.76511 304.659 291.486)" fill="#111111"/>
<rect width="3.63563" height="3.63563" transform="matrix(0.6439 -0.76511 0.6439 0.76511 304.659 296.732)" fill="#111111"/>
<rect width="3.63563" height="3.63563" transform="matrix(0.6439 -0.76511 0.6439 0.76511 304.659 301.977)" fill="#111111"/>
<rect width="3.63563" height="3.63563" transform="matrix(0.6439 -0.76511 0.6439 0.76511 309.074 233.782)" fill="#111111"/>
<rect width="3.63563" height="3.63563" transform="matrix(0.6439 -0.76511 0.6439 0.76511 309.074 239.028)" fill="#111111"/>
<rect width="3.63563" height="3.63563" transform="matrix(0.6439 -0.76511 0.6439 0.76511 309.074 244.274)" fill="#111111"/>
<rect width="3.63563" height="3.63563" transform="matrix(0.6439 -0.76511 0.6439 0.76511 309.074 249.519)" fill="#111111"/>
<rect width="3.63563" height="3.63563" transform="matrix(0.6439 -0.76511 0.6439 0.76511 309.074 254.765)" fill="#111111"/>
<rect width="3.63563" height="3.63563" transform="matrix(0.6439 -0.76511 0.6439 0.76511 309.074 260.011)" fill="#111111"/>
<rect width="3.63563" height="3.63563" transform="matrix(0.6439 -0.76511 0.6439 0.76511 309.074 265.257)" fill="#111111"/>
<rect width="3.63563" height="3.63563" transform="matrix(0.6439 -0.76511 0.6439 0.76511 309.074 270.503)" fill="#111111"/>
<rect width="3.63563" height="3.63563" transform="matrix(0.6439 -0.76511 0.6439 0.76511 309.074 275.748)" fill="#111111"/>
<rect width="3.63563" height="3.63563" transform="matrix(0.6439 -0.76511 0.6439 0.76511 309.074 280.994)" fill="#111111"/>
<rect width="3.63563" height="3.63563" transform="matrix(0.6439 -0.76511 0.6439 0.76511 309.074 286.24)" fill="#111111"/>
<rect width="3.63563" height="3.63563" transform="matrix(0.6439 -0.76511 0.6439 0.76511 309.074 291.486)" fill="#111111"/>
<rect width="3.63563" height="3.63563" transform="matrix(0.6439 -0.76511 0.6439 0.76511 309.074 296.732)" fill="#111111"/>
<rect width="3.63563" height="3.63563" transform="matrix(0.6439 -0.76511 0.6439 0.76511 309.074 301.977)" fill="#111111"/>
<rect width="3.63563" height="3.63563" transform="matrix(0.6439 -0.76511 0.6439 0.76511 313.488 233.782)" fill="#111111"/>
<rect width="3.63563" height="3.63563" transform="matrix(0.6439 -0.76511 0.6439 0.76511 313.488 239.028)" fill="#111111"/>
<rect width="3.63563" height="3.63563" transform="matrix(0.6439 -0.76511 0.6439 0.76511 313.488 244.274)" fill="#111111"/>
<rect width="3.63563" height="3.63563" transform="matrix(0.6439 -0.76511 0.6439 0.76511 313.488 249.519)" fill="#111111"/>
<rect width="3.63563" height="3.63563" transform="matrix(0.6439 -0.76511 0.6439 0.76511 313.488 254.765)" fill="#111111"/>
<rect width="3.63563" height="3.63563" transform="matrix(0.6439 -0.76511 0.6439 0.76511 313.488 260.011)" fill="#111111"/>
<rect width="3.63563" height="3.63563" transform="matrix(0.6439 -0.76511 0.6439 0.76511 313.488 265.257)" fill="#111111"/>
<rect width="3.63563" height="3.63563" transform="matrix(0.6439 -0.76511 0.6439 0.76511 313.488 270.503)" fill="#111111"/>
<rect width="3.63563" height="3.63563" transform="matrix(0.6439 -0.76511 0.6439 0.76511 313.488 275.748)" fill="#111111"/>
<rect width="3.63563" height="3.63563" transform="matrix(0.6439 -0.76511 0.6439 0.76511 313.488 280.994)" fill="#111111"/>
<rect width="3.63563" height="3.63563" transform="matrix(0.6439 -0.76511 0.6439 0.76511 313.488 286.24)" fill="#111111"/>
<rect width="3.63563" height="3.63563" transform="matrix(0.6439 -0.76511 0.6439 0.76511 313.488 291.486)" fill="#111111"/>
<rect width="3.63563" height="3.63563" transform="matrix(0.6439 -0.76511 0.6439 0.76511 313.488 296.732)" fill="#111111"/>
<rect width="3.63563" height="3.63563" transform="matrix(0.6439 -0.76511 0.6439 0.76511 313.488 301.977)" fill="#111111"/>
<rect width="3.63563" height="3.63563" transform="matrix(0.6439 -0.76511 0.6439 0.76511 317.903 233.782)" fill="#111111"/>
<rect width="3.63563" height="3.63563" transform="matrix(0.6439 -0.76511 0.6439 0.76511 317.903 239.028)" fill="#111111"/>
<rect width="3.63563" height="3.63563" transform="matrix(0.6439 -0.76511 0.6439 0.76511 317.903 244.274)" fill="#111111"/>
<rect width="3.63563" height="3.63563" transform="matrix(0.6439 -0.76511 0.6439 0.76511 317.903 249.519)" fill="#111111"/>
<rect width="3.63563" height="3.63563" transform="matrix(0.6439 -0.76511 0.6439 0.76511 317.903 254.765)" fill="#111111"/>
<rect width="3.63563" height="3.63563" transform="matrix(0.6439 -0.76511 0.6439 0.76511 317.903 260.011)" fill="#111111"/>
<rect width="3.63563" height="3.63563" transform="matrix(0.6439 -0.76511 0.6439 0.76511 317.903 265.257)" fill="#111111"/>
<rect width="3.63563" height="3.63563" transform="matrix(0.6439 -0.76511 0.6439 0.76511 317.903 270.503)" fill="#111111"/>
<rect width="3.63563" height="3.63563" transform="matrix(0.6439 -0.76511 0.6439 0.76511 317.903 275.748)" fill="#111111"/>
<rect width="3.63563" height="3.63563" transform="matrix(0.6439 -0.76511 0.6439 0.76511 317.903 280.994)" fill="#111111"/>
<rect width="3.63563" height="3.63563" transform="matrix(0.6439 -0.76511 0.6439 0.76511 317.903 286.24)" fill="#111111"/>
<rect width="3.63563" height="3.63563" transform="matrix(0.6439 -0.76511 0.6439 0.76511 317.903 291.486)" fill="#111111"/>
<rect width="3.63563" height="3.63563" transform="matrix(0.6439 -0.76511 0.6439 0.76511 317.903 296.732)" fill="#111111"/>
<rect width="3.63563" height="3.63563" transform="matrix(0.6439 -0.76511 0.6439 0.76511 317.903 301.977)" fill="#111111"/>
<rect width="3.63563" height="3.63563" transform="matrix(0.6439 -0.76511 0.6439 0.76511 322.318 233.782)" fill="#111111"/>
<rect width="3.63563" height="3.63563" transform="matrix(0.6439 -0.76511 0.6439 0.76511 322.318 239.028)" fill="#111111"/>
<rect width="3.63563" height="3.63563" transform="matrix(0.6439 -0.76511 0.6439 0.76511 322.318 244.274)" fill="#111111"/>
<rect width="3.63563" height="3.63563" transform="matrix(0.6439 -0.76511 0.6439 0.76511 322.318 249.519)" fill="#111111"/>
<rect width="3.63563" height="3.63563" transform="matrix(0.6439 -0.76511 0.6439 0.76511 322.318 254.765)" fill="#111111"/>
<rect width="3.63563" height="3.63563" transform="matrix(0.6439 -0.76511 0.6439 0.76511 322.318 260.011)" fill="#111111"/>
<rect width="3.63563" height="3.63563" transform="matrix(0.6439 -0.76511 0.6439 0.76511 322.318 265.257)" fill="#111111"/>
<rect width="3.63563" height="3.63563" transform="matrix(0.6439 -0.76511 0.6439 0.76511 322.318 270.503)" fill="#111111"/>
<rect width="3.63563" height="3.63563" transform="matrix(0.6439 -0.76511 0.6439 0.76511 322.318 275.748)" fill="#111111"/>
<rect width="3.63563" height="3.63563" transform="matrix(0.6439 -0.76511 0.6439 0.76511 322.318 280.994)" fill="#111111"/>
<rect width="3.63563" height="3.63563" transform="matrix(0.6439 -0.76511 0.6439 0.76511 322.318 286.24)" fill="#111111"/>
<rect width="3.63563" height="3.63563" transform="matrix(0.6439 -0.76511 0.6439 0.76511 322.318 291.486)" fill="#111111"/>
<rect width="3.63563" height="3.63563" transform="matrix(0.6439 -0.76511 0.6439 0.76511 322.318 296.732)" fill="#111111"/>
<rect width="3.63563" height="3.63563" transform="matrix(0.6439 -0.76511 0.6439 0.76511 322.318 301.977)" fill="#111111"/>
<rect width="3.63563" height="3.63563" transform="matrix(0.6439 -0.76511 0.6439 0.76511 317.903 307.219)" fill="#111111"/>
<rect width="3.63563" height="3.63563" transform="matrix(0.6439 -0.76511 0.6439 0.76511 322.318 307.219)" fill="#111111"/>
<rect width="3.63563" height="3.63563" transform="matrix(0.6439 -0.76511 0.6439 0.76511 309.078 307.219)" fill="#111111"/>
<rect width="3.63563" height="3.63563" transform="matrix(0.6439 -0.76511 0.6439 0.76511 313.493 307.219)" fill="#111111"/>
<rect width="3.63563" height="3.63563" transform="matrix(0.6439 -0.76511 0.6439 0.76511 300.252 307.219)" fill="#111111"/>
<rect width="3.63563" height="3.63563" transform="matrix(0.6439 -0.76511 0.6439 0.76511 304.667 307.219)" fill="#111111"/>
<rect width="3.63563" height="3.63563" transform="matrix(0.6439 -0.76511 0.6439 0.76511 291.427 307.219)" fill="#111111"/>
<rect width="3.63563" height="3.63563" transform="matrix(0.6439 -0.76511 0.6439 0.76511 295.842 307.219)" fill="#111111"/>
</mask>
<g mask="url(#mask1_917_3535)">
<rect x="288.581" y="233.24" width="34.7753" height="76.1725" rx="17.3877" fill="black"/>
</g>
<path fill-rule="evenodd" clip-rule="evenodd" d="M317 213C298.775 213 284 229.435 284 249.708V291.292C284 311.565 298.775 328 317 328C335.225 328 350 311.565 350 291.292V249.708C350 229.435 335.225 213 317 213ZM317 218C301.536 218 289 233.006 289 251.516V289.484C289 307.994 301.536 323 317 323C332.464 323 345 307.994 345 289.484V251.516C345 233.006 332.464 218 317 218Z" fill="black"/>
</svg>
